<?xml version="1.0" standalone="no"?>
<!DOCTYPE svg PUBLIC "-//W3C//DTD SVG 20010904//EN"
 "http://www.w3.org/TR/2001/REC-SVG-20010904/DTD/svg10.dtd">
<svg version="1.0" xmlns="http://www.w3.org/2000/svg"
 width="2000.000000pt" height="2000.000000pt" viewBox="0 0 2000.000000 2000.000000"
 preserveAspectRatio="xMidYMid meet">

<g transform="translate(0.000000,2000.000000) scale(0.100000,-0.100000)"
fill="#000000" stroke="none">
<path d="M9615 17989 c-620 -32 -1249 -134 -1795 -290 -789 -227 -1553 -577
-2210 -1013 -329 -219 -517 -360 -805 -605 -931 -791 -1701 -1840 -2170 -2956
-345 -821 -535 -1600 -611 -2515 -22 -254 -25 -902 -6 -1155 80 -1061 337
-2025 786 -2950 701 -1442 1831 -2651 3219 -3446 1438 -823 3047 -1173 4712
-1024 2248 202 4300 1352 5675 3180 201 268 437 634 603 937 561 1022 879
2106 969 3303 19 252 16 900 -6 1155 -52 624 -150 1150 -321 1715 -468 1545
-1390 2902 -2670 3930 -779 625 -1707 1113 -2670 1403 -872 263 -1805 377
-2700 331z m770 -119 c996 -53 1910 -269 2800 -662 896 -396 1698 -948 2395
-1647 780 -783 1363 -1675 1767 -2706 625 -1595 703 -3410 217 -5070 -453
-1546 -1373 -2919 -2634 -3931 -1729 -1389 -3951 -1979 -6160 -1638 -1035 160
-2037 535 -2955 1106 -1004 623 -1919 1548 -2537 2563 -790 1296 -1186 2763
-1155 4275 23 1062 231 2020 652 2990 515 1188 1355 2271 2380 3066 1154 895
2502 1447 3940 1613 145 17 339 32 575 44 142 8 544 6 715 -3z"/>
<path d="M9147 17333 c-65 -22 -130 -82 -164 -151 -28 -56 -28 -60 -28 -237 1
-99 4 -194 7 -211 7 -31 6 -31 -51 -47 -64 -18 -78 -30 -87 -73 -4 -21 0 -37
17 -58 22 -27 25 -28 85 -22 l63 6 6 -47 c16 -114 78 -421 113 -566 37 -150
39 -158 21 -170 -9 -7 -23 -24 -29 -39 -16 -34 9 -85 47 -94 32 -8 190 31 215
53 43 39 25 103 -36 128 l-33 14 -46 203 c-64 282 -110 550 -96 559 6 4 39 10
72 14 67 7 111 26 121 50 12 33 6 75 -15 96 -19 19 -29 21 -78 16 -31 -3 -72
-9 -93 -13 l-36 -6 -8 88 c-13 135 -9 244 9 286 20 47 69 78 123 78 43 0 85
-22 66 -34 -21 -13 -13 -65 13 -91 41 -42 75 -34 147 34 55 51 62 62 62 96 0
43 -30 75 -70 75 -12 0 -26 5 -29 10 -4 6 -29 22 -57 36 -65 33 -164 41 -231
17z"/>
<path d="M11104 16988 c-52 -17 -124 -79 -160 -138 -71 -116 -81 -255 -30
-415 14 -44 26 -83 26 -86 0 -4 -23 -21 -50 -39 -67 -43 -160 -146 -193 -214
-15 -30 -32 -89 -39 -130 -10 -65 -9 -84 5 -136 30 -108 88 -174 194 -223 41
-19 65 -22 163 -22 105 1 122 3 193 32 l78 31 28 -45 c23 -37 27 -53 23 -88
-3 -34 0 -47 17 -64 34 -34 80 -28 140 20 57 45 71 66 71 101 0 35 -20 57 -63
72 -27 9 -46 25 -62 53 l-24 40 44 43 c27 26 55 44 72 46 31 3 73 45 73 72 0
29 -37 80 -81 112 -61 44 -108 40 -135 -11 -8 -16 -12 -39 -9 -52 4 -16 -1
-29 -19 -46 -14 -14 -28 -23 -30 -20 -23 24 -203 386 -195 392 2 2 30 18 61
36 208 117 292 323 216 528 -46 124 -187 192 -314 151z m150 -178 c14 -17 28
-49 32 -75 16 -111 -28 -201 -136 -273 l-65 -43 -22 68 c-41 127 -24 251 44
319 28 28 41 34 77 34 37 0 48 -5 70 -30z m-215 -702 c21 -46 66 -134 99 -196
34 -62 62 -117 62 -122 0 -5 -25 -18 -57 -30 -78 -29 -178 -29 -239 0 -116 57
-125 201 -21 334 26 33 101 96 114 96 2 0 21 -37 42 -82z"/>
<path d="M7645 16753 c-27 -7 -45 -23 -55 -48 -6 -16 -23 -22 -83 -32 -101
-16 -173 -43 -244 -91 -253 -172 -337 -497 -221 -862 120 -380 423 -648 752
-667 160 -9 285 34 383 133 47 47 58 53 81 47 52 -14 87 2 103 45 16 41 0 70
-65 116 -33 25 -72 56 -85 70 -65 71 -172 -21 -117 -100 14 -19 12 -24 -15
-57 -16 -20 -55 -48 -87 -64 -52 -25 -67 -28 -167 -27 -87 0 -122 4 -167 21
-221 82 -399 296 -484 583 -15 51 -19 96 -19 210 1 128 3 152 23 202 64 160
191 263 351 284 44 6 51 4 57 -12 17 -56 50 -77 98 -63 50 14 56 31 56 155 l0
112 -31 26 c-17 14 -34 25 -37 25 -4 -1 -16 -4 -27 -6z"/>
<path d="M9854 16644 c-135 -48 -213 -214 -214 -451 0 -311 111 -464 329 -451
89 5 146 31 200 93 37 43 39 74 8 111 -34 40 -76 37 -126 -9 -46 -41 -95 -54
-144 -38 -49 16 -74 48 -92 116 -28 108 -37 101 137 109 223 11 235 22 225
210 -9 147 -28 209 -81 262 -62 62 -152 80 -242 48z m141 -168 c10 -14 18 -58
22 -110 l6 -86 -89 0 c-49 0 -100 -3 -113 -7 -23 -6 -24 -5 -17 41 10 62 39
130 70 161 35 35 99 35 121 1z"/>
<path d="M12640 16583 c-33 -12 -50 -37 -50 -74 0 -37 12 -52 64 -84 15 -9 -1
-46 -130 -310 -155 -317 -430 -895 -445 -932 -6 -16 -17 -23 -34 -23 -60 0
-96 -49 -74 -102 9 -22 32 -39 90 -69 91 -45 121 -48 154 -14 29 28 32 61 9
93 -15 21 -12 30 52 167 37 80 70 145 74 145 8 0 115 -243 160 -363 32 -86 33
-90 17 -117 -21 -35 -21 -59 -1 -88 28 -40 54 -43 150 -17 98 27 134 54 134
97 0 40 -40 78 -82 78 -33 0 -34 2 -62 78 -16 42 -57 144 -92 226 -35 82 -64
150 -64 151 0 1 48 5 108 7 128 6 204 29 309 94 131 82 227 208 273 362 18 60
22 91 18 175 -3 93 -7 108 -37 165 -62 114 -226 239 -431 328 -81 35 -85 36
-110 27z m257 -285 c147 -102 188 -178 165 -315 -42 -251 -298 -438 -543 -394
-34 6 -63 12 -65 14 -5 4 358 747 364 747 2 0 37 -23 79 -52z"/>
<path d="M8394 16466 c-64 -16 -112 -45 -159 -97 -60 -67 -90 -159 -69 -214
10 -26 63 -45 93 -34 31 12 48 35 56 77 19 101 150 152 235 92 21 -15 60 -102
60 -131 0 -2 -23 -5 -51 -6 -221 -8 -369 -201 -303 -396 19 -55 76 -117 136
-148 77 -40 199 -36 307 8 7 3 4 -4 -8 -16 -29 -29 -27 -76 4 -106 29 -30 44
-31 123 -4 75 25 106 59 98 104 -3 16 -15 37 -25 46 -14 12 -25 48 -41 135
-31 178 -88 431 -112 503 -46 141 -198 223 -344 187z m240 -489 c24 -24 55
-164 41 -187 -14 -23 -90 -50 -143 -50 -67 0 -105 19 -127 66 -15 31 -16 43
-5 77 13 45 61 94 105 106 57 17 104 13 129 -12z"/>
<path d="M6460 15573 c-8 -3 -21 -11 -28 -16 -8 -6 -30 -10 -50 -9 -89 7 -177
-51 -223 -144 -29 -58 -31 -71 -27 -132 10 -133 96 -236 244 -291 29 -11 104
-27 168 -35 124 -17 166 -32 192 -71 30 -47 2 -114 -53 -128 -18 -4 -23 -1
-23 15 0 25 -53 78 -78 78 -48 0 -122 -105 -122 -176 0 -57 59 -96 108 -71 17
8 36 10 48 6 61 -24 171 9 226 67 58 63 78 177 43 259 -45 111 -142 159 -355
180 -88 8 -183 54 -215 103 -38 59 -38 117 1 156 35 34 50 33 57 -4 4 -19 17
-34 36 -45 40 -20 55 -19 85 8 28 25 71 164 61 196 -11 36 -63 66 -95 54z"/>
<path d="M13427 15536 c-159 -57 -353 -300 -397 -498 -34 -149 62 -293 220
-334 130 -33 234 23 200 107 -16 36 -31 42 -118 43 -73 1 -74 1 -113 43 -31
34 -39 50 -39 80 0 46 55 167 73 160 6 -2 66 -39 131 -81 174 -111 196 -108
292 47 94 150 112 224 78 305 -47 113 -200 173 -327 128z m151 -156 c52 -32
44 -72 -47 -209 -7 -11 -26 -3 -95 39 -48 29 -90 58 -93 63 -9 14 72 85 122
108 51 24 72 24 113 -1z"/>
<path d="M5536 15408 c-36 -50 -24 -74 110 -220 112 -124 128 -138 158 -138
51 0 89 57 66 100 -13 24 -186 221 -226 258 -34 30 -87 30 -108 0z"/>
<path d="M5083 15146 c-70 -72 -83 -104 -59 -142 25 -37 61 -50 98 -36 36 13
-1 42 339 -268 124 -113 262 -236 307 -275 44 -38 81 -72 81 -75 1 -7 -138
-164 -148 -168 -4 -1 -84 71 -177 160 -94 90 -249 236 -346 326 -168 156 -176
165 -167 190 19 50 -23 102 -83 102 -38 0 -168 -154 -168 -200 0 -40 34 -70
78 -70 21 0 43 5 49 11 13 13 250 -203 708 -648 304 -294 325 -317 325 -349 0
-45 37 -84 79 -84 30 0 34 3 125 108 63 72 61 128 -4 151 -32 11 -55 7 -80
-15 -14 -12 -31 1 -123 94 l-107 107 83 88 82 87 75 -66 c167 -149 153 -132
140 -164 -24 -59 41 -125 98 -100 31 13 146 144 156 177 10 30 -19 81 -49 89
-25 6 -42 4 -76 -11 -15 -6 -333 269 -774 669 -277 252 -287 262 -290 302 -3
45 -33 74 -78 74 -25 0 -43 -13 -94 -64z"/>
<path d="M14071 15129 c-129 -25 -231 -148 -249 -302 -5 -36 -4 -105 1 -153 4
-49 7 -116 4 -148 -3 -49 -8 -63 -31 -83 -42 -36 -113 -25 -133 20 -8 18 -5
25 21 42 90 61 35 147 -103 161 -55 6 -61 5 -85 -19 -29 -29 -34 -73 -11 -103
8 -10 15 -37 15 -59 2 -123 137 -238 260 -220 93 14 155 57 198 139 26 49 27
56 23 171 -8 247 -8 256 19 310 45 91 128 121 190 68 l32 -26 -26 -14 c-51
-27 -61 -89 -21 -128 22 -23 32 -25 119 -25 87 0 96 2 110 22 22 31 20 81 -3
102 -10 10 -22 34 -26 54 -24 131 -163 218 -304 191z"/>
<path d="M14960 14973 c-14 -9 -78 -64 -144 -121 l-119 -104 -51 51 c-37 37
-59 51 -79 51 -40 0 -62 -15 -76 -49 -15 -35 -1 -69 48 -115 17 -17 31 -35 31
-41 0 -7 -96 -95 -212 -196 -291 -252 -334 -294 -363 -353 -70 -145 -23 -285
113 -336 64 -25 116 -22 185 8 37 16 45 16 71 4 25 -13 33 -12 62 2 43 20 50
48 36 143 -12 88 -37 123 -87 123 -36 0 -71 -32 -77 -70 -4 -29 -68 -70 -110
-70 -36 0 -68 32 -68 68 0 42 38 95 126 174 106 97 424 372 433 376 4 1 40
-34 80 -78 63 -69 77 -80 106 -80 47 0 79 29 79 73 0 29 -11 48 -72 115 l-72
79 131 114 c72 62 135 121 140 130 16 31 10 60 -20 90 -34 33 -56 36 -91 12z"/>
<path d="M4486 14458 c-31 -29 -96 -126 -96 -144 0 -51 50 -89 106 -78 28 5
41 0 81 -29 26 -19 217 -148 423 -287 206 -139 366 -249 355 -246 -31 9 -648
130 -875 171 l-205 38 -15 31 c-20 41 -62 56 -98 35 -15 -8 -50 -48 -79 -89
-59 -85 -67 -126 -32 -161 18 -18 29 -21 70 -16 l48 6 469 -312 c258 -172 517
-342 574 -379 l106 -67 -5 -44 c-7 -56 19 -87 70 -87 39 0 51 12 131 124 62
87 68 115 31 151 -30 31 -73 32 -108 5 l-25 -20 -174 111 c-250 161 -779 511
-776 515 5 4 603 -111 859 -165 385 -82 377 -80 381 -103 2 -12 15 -30 30 -41
46 -35 83 -16 145 76 58 85 64 111 32 151 -24 30 -72 35 -107 10 -22 -15 -28
-12 -160 72 -75 48 -338 222 -584 387 -421 281 -448 301 -448 329 0 36 -40 78
-74 78 -14 0 -36 -10 -50 -22z"/>
<path d="M14835 13936 c-140 -44 -244 -147 -290 -285 -28 -85 -18 -217 22
-303 126 -268 466 -329 682 -123 82 78 113 150 119 273 4 76 0 105 -17 160
-60 185 -207 293 -396 291 -44 0 -98 -6 -120 -13z m248 -174 c52 -28 77 -57
107 -124 45 -104 31 -214 -37 -289 -59 -65 -104 -84 -204 -84 -78 0 -90 3
-135 30 -95 59 -149 182 -124 285 43 179 234 267 393 182z"/>
<path d="M9387 13721 c265 -92 490 -339 564 -616 30 -113 30 -288 1 -406 -63
-256 -213 -484 -594 -900 -196 -214 -246 -276 -323 -394 -277 -424 -282 -813
-18 -1405 81 -182 142 -297 201 -377 25 -35 46 -63 47 -63 1 0 -25 78 -56 173
-75 223 -93 337 -86 516 7 169 36 290 105 436 90 187 208 333 468 580 515 489
716 818 754 1231 51 564 -276 1055 -804 1209 -110 31 -193 45 -276 45 l-65 0
82 -29z"/>
<path d="M9369 13565 c111 -139 161 -266 161 -405 0 -182 -89 -372 -249 -531
-42 -41 -155 -138 -251 -216 -395 -316 -569 -570 -609 -892 -25 -194 41 -468
162 -679 l42 -75 6 114 c4 63 12 141 18 174 30 162 126 388 236 555 73 109
188 251 379 468 200 225 277 329 350 472 129 252 149 448 65 658 -55 139 -165
281 -289 376 -85 65 -87 64 -21 -19z"/>
<path d="M3672 13083 c-403 -838 -630 -1691 -693 -2606 -16 -231 -6 -950 15
-1157 125 -1200 505 -2257 1167 -3245 557 -833 1322 -1566 2175 -2083 236
-143 549 -312 677 -365 l37 -16 26 50 c14 28 24 53 22 55 -2 1 -68 35 -146 73
-697 345 -1282 765 -1841 1322 -1596 1593 -2309 3842 -1925 6075 110 643 333
1324 618 1893 l45 89 -50 31 c-28 17 -52 31 -53 31 -2 0 -35 -66 -74 -147z"/>
<path d="M16208 13178 l-47 -31 50 -99 c105 -209 248 -555 335 -813 420 -1233
484 -2571 183 -3840 -239 -1006 -721 -1982 -1368 -2765 -162 -197 -237 -279
-439 -484 -549 -555 -1091 -954 -1779 -1308 l-213 -109 25 -50 c14 -27 30 -49
37 -49 6 0 104 48 217 107 938 485 1721 1137 2368 1972 716 923 1199 2050
1377 3211 59 387 76 627 76 1080 0 195 -5 418 -10 495 -66 907 -290 1749 -687
2578 -37 75 -69 137 -72 137 -3 0 -27 -15 -53 -32z"/>
<path d="M10647 12593 c31 -303 -26 -552 -188 -820 -89 -147 -202 -278 -524
-603 -174 -177 -340 -355 -378 -405 -122 -163 -209 -369 -237 -564 -19 -128
-8 -344 23 -464 40 -152 120 -280 208 -331 32 -19 32 -19 25 0 -47 121 -47
350 -1 494 15 47 49 128 77 181 101 194 233 341 538 597 316 265 476 448 584
667 103 209 142 388 132 610 -8 197 -44 333 -136 515 -41 82 -115 200 -126
200 -3 0 -1 -35 3 -77z"/>
<path d="M4028 11065 c-80 -26 -167 -93 -219 -170 -57 -82 -79 -146 -86 -241
-10 -129 33 -249 122 -339 67 -68 119 -103 296 -196 230 -121 307 -180 363
-279 22 -39 26 -42 26 -20 0 34 -34 97 -78 143 -48 50 -167 135 -312 222 -151
91 -207 133 -253 194 -59 77 -81 141 -81 241 -1 77 2 92 32 152 44 90 132 172
209 194 47 14 65 14 109 5 124 -28 225 -161 225 -299 1 -89 -49 -145 -145
-163 -130 -24 -204 67 -146 180 26 53 42 56 84 15 40 -39 63 -42 93 -14 34 31
37 56 13 95 -66 106 -190 110 -279 9 -74 -85 -90 -183 -43 -275 48 -95 167
-159 271 -145 218 30 342 289 234 489 -35 64 -134 154 -203 185 -69 31 -166
38 -232 17z"/>
<path d="M15771 11060 c-107 -39 -197 -121 -244 -219 -80 -170 4 -385 176
-449 71 -27 122 -28 187 -3 72 28 125 74 156 137 22 46 26 64 21 108 -18 179
-195 294 -307 199 -62 -51 -73 -116 -27 -148 33 -23 55 -18 94 20 44 42 63 36
88 -30 21 -53 15 -109 -13 -138 -42 -42 -162 -40 -223 4 -71 50 -83 156 -30
263 61 124 176 192 285 167 165 -38 294 -249 257 -420 -29 -134 -107 -228
-275 -331 -287 -175 -362 -232 -418 -319 -15 -25 -28 -59 -28 -75 l0 -31 21
40 c49 93 167 184 369 285 219 109 313 189 375 313 85 173 42 391 -106 532
-107 102 -243 138 -358 95z"/>
<path d="M9952 10255 c-62 -68 -159 -202 -151 -209 2 -2 87 -9 188 -15 595
-37 1075 -165 1242 -331 85 -84 84 -137 -3 -215 -307 -276 -1524 -397 -2508
-250 -454 68 -880 243 -880 362 0 19 15 41 53 78 121 117 412 227 802 301 77
14 142 28 144 30 2 2 -20 64 -49 137 -40 105 -56 134 -68 131 -10 -2 -66 -13
-127 -24 -544 -104 -896 -277 -992 -487 -34 -75 -44 -217 -32 -468 20 -438 86
-733 240 -1070 233 -513 618 -883 1128 -1085 384 -152 835 -160 1251 -23 239
78 460 211 669 400 65 58 100 83 123 87 18 2 83 10 143 16 149 15 238 34 380
82 557 185 994 622 1102 1100 22 100 22 293 0 377 -76 286 -324 471 -632 474
-110 1 -183 -15 -288 -62 l-64 -29 -5 69 c-7 90 -44 164 -122 243 -221 224
-805 415 -1354 442 l-128 7 -62 -68z m1398 -890 c0 -2 -43 -60 -96 -127 -125
-159 -198 -269 -374 -563 -242 -405 -364 -576 -544 -762 -296 -309 -616 -459
-1041 -489 -106 -7 -311 9 -442 36 -104 22 -245 61 -239 67 2 2 61 12 132 23
321 48 530 145 820 381 106 86 258 242 448 459 395 452 588 603 1111 872 201
103 225 114 225 103z m808 -35 c118 -63 173 -157 180 -305 12 -270 -163 -585
-453 -817 -161 -128 -361 -224 -573 -273 -96 -23 -97 -22 -61 38 62 105 169
332 207 441 70 196 137 497 158 709 7 65 9 69 55 111 58 52 122 91 193 117 39
15 71 19 141 16 80 -3 97 -7 153 -37z"/>
<path d="M5009 10286 c-59 -21 -104 -53 -163 -117 -115 -124 -176 -294 -176
-491 0 -51 7 -121 15 -156 28 -118 99 -228 173 -266 l27 -14 1 137 c0 159 12
203 97 360 66 122 102 205 122 282 19 72 31 215 21 253 -5 22 -12 26 -44 26
-20 -1 -53 -7 -73 -14z"/>
<path d="M14874 10275 c-10 -39 2 -181 20 -253 21 -79 63 -176 124 -287 82
-149 95 -197 96 -357 1 -76 3 -138 5 -138 8 0 72 52 96 78 39 42 83 133 101
208 22 95 14 281 -16 379 -32 103 -87 201 -152 270 -69 74 -140 115 -213 122
-52 6 -54 5 -61 -22z"/>
<path d="M5227 10166 c-10 -165 -52 -286 -185 -533 -57 -106 -75 -226 -55
-368 l6 -47 45 6 c112 15 227 114 302 257 60 115 83 211 83 349 1 195 -57 344
-162 419 l-28 20 -6 -103z"/>
<path d="M14718 10230 c-58 -51 -112 -155 -134 -260 -19 -91 -13 -221 16 -334
55 -215 215 -396 366 -414 l41 -4 6 47 c20 142 2 263 -55 368 -133 250 -175
368 -186 536 l-7 103 -47 -42z"/>
<path d="M3950 10065 c-58 -18 -115 -66 -141 -118 -29 -56 -22 -124 17 -180
78 -111 200 -126 285 -37 50 52 57 97 27 158 -44 90 -135 107 -205 37 -42 -42
-44 -85 -8 -121 28 -28 52 -28 69 -2 8 13 6 21 -7 36 -24 26 -21 38 12 52 58
24 100 -16 87 -83 -14 -73 -74 -92 -155 -50 -99 51 -116 134 -45 213 98 108
251 83 334 -54 117 -193 161 -247 210 -261 21 -6 20 -4 -7 14 -42 26 -77 76
-143 200 -64 123 -113 175 -183 196 -61 18 -88 18 -147 0z"/>
<path d="M15899 10064 c-61 -18 -117 -75 -164 -166 -69 -133 -107 -189 -149
-220 -32 -24 -35 -29 -16 -24 37 11 109 92 164 187 83 140 128 182 214 195 85
13 192 -59 208 -140 10 -56 -31 -117 -97 -145 -78 -34 -132 -13 -145 56 -13
67 29 106 89 84 31 -12 34 -27 10 -53 -13 -15 -15 -23 -7 -36 17 -26 41 -26
69 2 36 36 34 79 -8 121 -69 69 -160 53 -205 -35 -27 -54 -23 -98 15 -149 28
-37 93 -70 136 -71 94 -1 196 103 197 199 0 82 -73 169 -164 196 -60 18 -87
18 -147 -1z"/>
<path d="M4031 9519 c-80 -12 -173 -43 -230 -76 -57 -33 -128 -99 -147 -136
-14 -26 -14 -31 2 -48 32 -36 215 -117 304 -135 74 -15 101 -15 215 -5 173 15
290 14 405 -3 89 -14 239 -59 303 -93 16 -8 31 -13 33 -10 9 9 -37 135 -65
178 -72 108 -219 218 -365 273 -133 50 -329 74 -455 55z"/>
<path d="M15742 9520 c-262 -33 -501 -172 -606 -352 -27 -46 -60 -148 -51
-157 3 -2 35 10 72 27 165 75 317 99 543 86 245 -13 315 -11 400 15 81 24 221
94 246 123 15 16 14 20 -6 52 -92 149 -347 237 -598 206z"/>
<path d="M3612 9092 c15 -154 181 -333 390 -420 135 -56 230 -76 363 -75 75 0
146 7 190 17 148 35 276 121 325 216 12 23 20 43 18 45 -26 21 -112 60 -184
84 -137 46 -261 57 -474 42 -250 -17 -354 0 -525 88 -49 25 -94 48 -99 50 -5
2 -7 -19 -4 -47z"/>
<path d="M16284 9089 c-50 -26 -128 -58 -175 -71 -74 -20 -101 -22 -229 -18
-289 8 -439 3 -521 -18 -79 -21 -212 -74 -242 -97 -18 -13 -18 -15 3 -55 47
-92 176 -179 320 -217 80 -21 279 -23 365 -4 254 56 461 194 546 366 32 66 54
166 35 164 -6 -1 -52 -23 -102 -50z"/>
<path d="M5070 7951 c0 -18 120 -274 199 -426 510 -979 1329 -1788 2312 -2285
302 -153 569 -260 867 -349 405 -122 753 -185 1177 -216 565 -41 1167 13 1712
156 765 199 1479 565 2080 1068 623 520 1115 1167 1453 1909 33 73 60 137 60
143 0 5 -27 9 -61 9 l-60 0 -45 -97 c-422 -921 -1060 -1670 -1886 -2215 -737
-487 -1534 -767 -2423 -850 -212 -20 -739 -17 -951 5 -652 67 -1210 224 -1770
496 -542 264 -990 581 -1413 1002 -467 464 -815 964 -1086 1562 l-44 97 -60 0
c-34 0 -61 -4 -61 -9z"/>
<path d="M11767 7290 c-189 -135 -550 -279 -939 -374 -545 -133 -1229 -175
-1803 -111 -751 85 -1306 249 -1615 478 -60 44 -62 47 79 -113 113 -127 157
-169 283 -266 441 -338 925 -539 1493 -620 181 -26 528 -24 705 3 201 32 356
69 536 129 450 149 825 380 1119 686 103 107 221 239 213 237 -1 0 -34 -22
-71 -49z"/>
<path d="M7585 4282 c-4 -11 6 -26 31 -47 33 -28 36 -35 31 -63 -5 -25 -254
-588 -333 -756 l-17 -34 -49 14 c-26 8 -53 12 -58 9 -24 -15 -6 -33 48 -49 31
-10 155 -65 275 -122 120 -57 221 -104 225 -104 13 0 67 61 111 125 39 56 41
60 24 73 -16 11 -22 8 -51 -27 -19 -24 -51 -46 -78 -57 -39 -15 -52 -15 -100
-5 -115 26 -214 92 -214 143 0 12 58 149 119 281 l40 87 131 -65 c71 -36 133
-65 138 -65 8 0 45 70 40 75 -2 2 -57 22 -123 45 -66 23 -130 46 -142 51 l-22
8 21 48 c11 26 49 108 84 181 l63 133 110 -56 c154 -79 183 -120 150 -215 -9
-26 -9 -34 2 -41 8 -5 16 -9 19 -9 3 0 31 49 62 109 l58 109 -53 17 c-78 26
-339 132 -444 180 -78 37 -93 41 -98 27z"/>
<path d="M12257 4226 c-85 -97 -120 -149 -167 -248 -54 -113 -73 -194 -73
-308 -1 -194 90 -374 220 -440 68 -35 186 -35 258 0 67 33 131 98 163 168 23
48 27 70 27 142 -1 107 -35 191 -102 250 -58 50 -100 64 -183 58 -84 -6 -170
-50 -234 -118 -27 -29 -47 -43 -49 -35 -3 6 -1 46 3 87 16 138 77 279 181 418
49 65 59 84 48 91 -22 14 -24 13 -92 -65z m215 -492 c107 -55 165 -279 99
-376 -79 -115 -230 -117 -327 -5 -46 53 -105 175 -111 231 -5 40 -3 45 38 80
102 88 215 114 301 70z"/>
<path d="M11457 3985 c-107 -40 -212 -159 -232 -266 -7 -36 8 -88 28 -101 21
-14 63 -8 80 10 14 16 14 22 -4 76 -38 112 4 180 128 206 71 16 121 1 166 -50
47 -51 62 -105 61 -220 -1 -146 -43 -256 -228 -595 -51 -94 -63 -123 -53 -132
9 -9 74 5 287 64 151 41 276 76 278 78 2 2 0 52 -4 113 -6 97 -9 109 -24 105
-12 -3 -20 -19 -24 -52 -4 -31 -14 -55 -29 -68 -16 -16 -354 -133 -382 -133
-3 0 10 24 27 53 59 100 187 362 219 452 29 80 33 102 33 200 1 94 -2 116 -21
150 -27 51 -68 90 -115 109 -46 19 -140 20 -191 1z"/>
<path d="M10714 3829 c-52 -15 -126 -71 -161 -122 -51 -76 -74 -163 -80 -302
-14 -344 146 -615 364 -615 77 0 130 20 184 68 98 88 141 220 142 437 1 160
-12 227 -67 340 -66 134 -166 205 -286 204 -36 0 -79 -5 -96 -10z m155 -65
c123 -62 194 -263 195 -559 1 -146 -12 -211 -54 -278 -73 -115 -228 -103 -312
25 -88 133 -132 313 -126 518 3 124 6 140 31 193 57 115 159 154 266 101z"/>
<path d="M9997 3780 c-89 -23 -184 -89 -229 -159 -55 -87 -26 -179 49 -154 27
9 28 12 28 84 0 85 15 118 68 146 49 26 142 23 193 -6 62 -35 86 -84 85 -175
-1 -174 -75 -300 -350 -591 -72 -77 -130 -147 -129 -155 3 -13 42 -15 275 -18
288 -2 323 2 323 40 0 13 8 58 19 100 15 66 16 78 4 83 -22 8 -23 8 -42 -37
-33 -76 -36 -78 -242 -88 -101 -5 -190 -10 -197 -10 -7 0 44 62 113 138 155
167 263 308 306 399 38 79 51 193 29 258 -16 48 -63 101 -111 126 -46 23 -139
32 -192 19z"/>
<path d="M8824 3723 c-29 -4 -31 -6 -49 -94 -11 -49 -22 -94 -25 -99 -3 -5
-21 -5 -45 0 -58 14 -85 12 -85 -4 0 -8 22 -22 53 -32 28 -9 55 -18 58 -20 4
-2 -17 -97 -47 -211 -65 -253 -69 -316 -25 -365 28 -31 33 -33 98 -33 51 0 79
6 113 23 67 33 94 57 87 76 -6 14 -9 14 -39 -3 -108 -62 -197 -14 -182 99 5
41 83 381 89 388 2 2 42 -5 89 -15 l87 -18 19 25 c11 14 20 27 20 30 0 3 -44
11 -97 18 -53 7 -98 14 -99 15 -2 2 10 48 26 102 16 55 30 106 30 113 0 12
-14 13 -76 5z"/>
<path d="M8204 3622 c-70 -34 -112 -109 -99 -180 5 -28 28 -58 100 -132 104
-107 115 -123 115 -175 0 -29 -8 -45 -34 -71 -28 -28 -41 -34 -77 -34 -86 0
-146 64 -136 147 5 43 4 43 -27 43 -70 0 -102 -89 -52 -143 72 -78 241 -109
339 -62 74 35 109 142 71 218 -9 18 -56 73 -106 123 -76 77 -90 97 -95 131
-14 108 151 153 213 58 14 -22 15 -33 6 -73 -5 -26 -8 -50 -6 -54 11 -18 57
-6 85 21 35 35 38 77 9 114 -55 69 -224 107 -306 69z"/>
<path d="M9114 2949 c-50 -18 -72 -100 -36 -132 25 -22 85 -22 105 1 22 24 30
63 18 94 -11 30 -56 49 -87 37z"/>
</g>
</svg>
